<mxfile host="app.diagrams.net" agent="Mozilla/5.0 (Windows NT 10.0; Win64; x64) AppleWebKit/537.36 (KHTML, like Gecko) Chrome/138.0.0.0 Safari/537.36" version="28.1.1">
  <diagram name="Page-1" id="jnh4AVxjobn_Jw8UmcQW">
    <mxGraphModel dx="1226" dy="661" grid="1" gridSize="10" guides="1" tooltips="1" connect="1" arrows="1" fold="1" page="1" pageScale="1" pageWidth="850" pageHeight="1100" math="0" shadow="0">
      <root>
        <mxCell id="0" />
        <mxCell id="1" parent="0" />
        <mxCell id="odBqUGXwdGTBBKec0tf7-2" style="edgeStyle=orthogonalEdgeStyle;rounded=0;orthogonalLoop=1;jettySize=auto;html=1;entryX=0.5;entryY=0;entryDx=0;entryDy=0;" edge="1" parent="1" source="odBqUGXwdGTBBKec0tf7-3" target="odBqUGXwdGTBBKec0tf7-5">
          <mxGeometry relative="1" as="geometry" />
        </mxCell>
        <mxCell id="odBqUGXwdGTBBKec0tf7-3" value="start" style="ellipse;whiteSpace=wrap;html=1;" vertex="1" parent="1">
          <mxGeometry x="348" y="10" width="155" height="50" as="geometry" />
        </mxCell>
        <mxCell id="odBqUGXwdGTBBKec0tf7-4" style="edgeStyle=orthogonalEdgeStyle;rounded=0;orthogonalLoop=1;jettySize=auto;html=1;exitX=0.5;exitY=1;exitDx=0;exitDy=0;entryX=0.5;entryY=0;entryDx=0;entryDy=0;" edge="1" parent="1" source="odBqUGXwdGTBBKec0tf7-5" target="odBqUGXwdGTBBKec0tf7-36">
          <mxGeometry relative="1" as="geometry" />
        </mxCell>
        <mxCell id="odBqUGXwdGTBBKec0tf7-5" value="รับค่า n" style="shape=parallelogram;perimeter=parallelogramPerimeter;whiteSpace=wrap;html=1;fixedSize=1;" vertex="1" parent="1">
          <mxGeometry x="348" y="100" width="155" height="40" as="geometry" />
        </mxCell>
        <mxCell id="odBqUGXwdGTBBKec0tf7-6" style="edgeStyle=orthogonalEdgeStyle;rounded=0;orthogonalLoop=1;jettySize=auto;html=1;exitX=0;exitY=0.5;exitDx=0;exitDy=0;entryX=0.5;entryY=0;entryDx=0;entryDy=0;" edge="1" parent="1" source="odBqUGXwdGTBBKec0tf7-8" target="odBqUGXwdGTBBKec0tf7-10">
          <mxGeometry relative="1" as="geometry" />
        </mxCell>
        <mxCell id="odBqUGXwdGTBBKec0tf7-7" style="edgeStyle=orthogonalEdgeStyle;rounded=0;orthogonalLoop=1;jettySize=auto;html=1;exitX=1;exitY=0.5;exitDx=0;exitDy=0;" edge="1" parent="1" source="odBqUGXwdGTBBKec0tf7-8" target="odBqUGXwdGTBBKec0tf7-12">
          <mxGeometry relative="1" as="geometry" />
        </mxCell>
        <mxCell id="odBqUGXwdGTBBKec0tf7-8" value="n % 2 == 0" style="rhombus;whiteSpace=wrap;html=1;" vertex="1" parent="1">
          <mxGeometry x="363" y="250" width="125" height="60" as="geometry" />
        </mxCell>
        <mxCell id="odBqUGXwdGTBBKec0tf7-9" style="edgeStyle=orthogonalEdgeStyle;rounded=0;orthogonalLoop=1;jettySize=auto;html=1;exitX=0.5;exitY=1;exitDx=0;exitDy=0;entryX=0.5;entryY=0;entryDx=0;entryDy=0;" edge="1" parent="1" source="odBqUGXwdGTBBKec0tf7-10" target="odBqUGXwdGTBBKec0tf7-31">
          <mxGeometry relative="1" as="geometry" />
        </mxCell>
        <mxCell id="odBqUGXwdGTBBKec0tf7-10" value="i = n" style="rounded=0;whiteSpace=wrap;html=1;" vertex="1" parent="1">
          <mxGeometry x="200" y="350" width="120" height="40" as="geometry" />
        </mxCell>
        <mxCell id="odBqUGXwdGTBBKec0tf7-11" style="edgeStyle=orthogonalEdgeStyle;rounded=0;orthogonalLoop=1;jettySize=auto;html=1;exitX=0.5;exitY=1;exitDx=0;exitDy=0;entryX=0.5;entryY=0;entryDx=0;entryDy=0;" edge="1" parent="1" source="odBqUGXwdGTBBKec0tf7-12" target="odBqUGXwdGTBBKec0tf7-33">
          <mxGeometry relative="1" as="geometry" />
        </mxCell>
        <mxCell id="odBqUGXwdGTBBKec0tf7-12" value="i = 1" style="rounded=0;whiteSpace=wrap;html=1;" vertex="1" parent="1">
          <mxGeometry x="520" y="350" width="120" height="40" as="geometry" />
        </mxCell>
        <mxCell id="odBqUGXwdGTBBKec0tf7-13" value="สิ้นสุด" style="ellipse;whiteSpace=wrap;html=1;" vertex="1" parent="1">
          <mxGeometry x="353" y="890" width="144" height="60" as="geometry" />
        </mxCell>
        <mxCell id="odBqUGXwdGTBBKec0tf7-14" style="edgeStyle=orthogonalEdgeStyle;rounded=0;orthogonalLoop=1;jettySize=auto;html=1;exitX=0.5;exitY=1;exitDx=0;exitDy=0;entryX=0.5;entryY=0;entryDx=0;entryDy=0;" edge="1" parent="1" source="odBqUGXwdGTBBKec0tf7-16" target="odBqUGXwdGTBBKec0tf7-21">
          <mxGeometry relative="1" as="geometry" />
        </mxCell>
        <mxCell id="odBqUGXwdGTBBKec0tf7-15" style="edgeStyle=orthogonalEdgeStyle;rounded=0;orthogonalLoop=1;jettySize=auto;html=1;exitX=1;exitY=0.5;exitDx=0;exitDy=0;entryX=0;entryY=0.5;entryDx=0;entryDy=0;" edge="1" parent="1" source="odBqUGXwdGTBBKec0tf7-16" target="odBqUGXwdGTBBKec0tf7-29">
          <mxGeometry relative="1" as="geometry" />
        </mxCell>
        <mxCell id="odBqUGXwdGTBBKec0tf7-16" value="i &amp;lt;=0" style="rhombus;whiteSpace=wrap;html=1;" vertex="1" parent="1">
          <mxGeometry x="195" y="500" width="130" height="70" as="geometry" />
        </mxCell>
        <mxCell id="odBqUGXwdGTBBKec0tf7-17" style="edgeStyle=orthogonalEdgeStyle;rounded=0;orthogonalLoop=1;jettySize=auto;html=1;exitX=0.5;exitY=1;exitDx=0;exitDy=0;entryX=0.5;entryY=0;entryDx=0;entryDy=0;" edge="1" parent="1" source="odBqUGXwdGTBBKec0tf7-19" target="odBqUGXwdGTBBKec0tf7-23">
          <mxGeometry relative="1" as="geometry" />
        </mxCell>
        <mxCell id="odBqUGXwdGTBBKec0tf7-18" style="edgeStyle=orthogonalEdgeStyle;rounded=0;orthogonalLoop=1;jettySize=auto;html=1;exitX=0;exitY=0.5;exitDx=0;exitDy=0;entryX=1;entryY=0.5;entryDx=0;entryDy=0;" edge="1" parent="1" source="odBqUGXwdGTBBKec0tf7-19" target="odBqUGXwdGTBBKec0tf7-29">
          <mxGeometry relative="1" as="geometry" />
        </mxCell>
        <mxCell id="odBqUGXwdGTBBKec0tf7-19" value="i &amp;gt;= n" style="rhombus;whiteSpace=wrap;html=1;" vertex="1" parent="1">
          <mxGeometry x="515" y="500" width="130" height="70" as="geometry" />
        </mxCell>
        <mxCell id="odBqUGXwdGTBBKec0tf7-20" style="edgeStyle=orthogonalEdgeStyle;rounded=0;orthogonalLoop=1;jettySize=auto;html=1;exitX=0.5;exitY=1;exitDx=0;exitDy=0;entryX=0.5;entryY=0;entryDx=0;entryDy=0;" edge="1" parent="1" source="odBqUGXwdGTBBKec0tf7-21" target="odBqUGXwdGTBBKec0tf7-25">
          <mxGeometry relative="1" as="geometry" />
        </mxCell>
        <mxCell id="odBqUGXwdGTBBKec0tf7-21" value="แสดงค่า" style="shape=parallelogram;perimeter=parallelogramPerimeter;whiteSpace=wrap;html=1;fixedSize=1;" vertex="1" parent="1">
          <mxGeometry x="175" y="610" width="170" height="50" as="geometry" />
        </mxCell>
        <mxCell id="odBqUGXwdGTBBKec0tf7-22" style="edgeStyle=orthogonalEdgeStyle;rounded=0;orthogonalLoop=1;jettySize=auto;html=1;exitX=0.5;exitY=1;exitDx=0;exitDy=0;entryX=0.5;entryY=0;entryDx=0;entryDy=0;" edge="1" parent="1" source="odBqUGXwdGTBBKec0tf7-23" target="odBqUGXwdGTBBKec0tf7-27">
          <mxGeometry relative="1" as="geometry" />
        </mxCell>
        <mxCell id="odBqUGXwdGTBBKec0tf7-23" value="แสดงค่า" style="shape=parallelogram;perimeter=parallelogramPerimeter;whiteSpace=wrap;html=1;fixedSize=1;" vertex="1" parent="1">
          <mxGeometry x="495" y="620" width="170" height="40" as="geometry" />
        </mxCell>
        <mxCell id="odBqUGXwdGTBBKec0tf7-24" style="edgeStyle=orthogonalEdgeStyle;rounded=0;orthogonalLoop=1;jettySize=auto;html=1;exitX=0;exitY=0.5;exitDx=0;exitDy=0;entryX=0;entryY=0.5;entryDx=0;entryDy=0;" edge="1" parent="1" source="odBqUGXwdGTBBKec0tf7-25" target="odBqUGXwdGTBBKec0tf7-31">
          <mxGeometry relative="1" as="geometry">
            <Array as="points">
              <mxPoint x="150" y="750" />
              <mxPoint x="150" y="460" />
            </Array>
          </mxGeometry>
        </mxCell>
        <mxCell id="odBqUGXwdGTBBKec0tf7-25" value="i--" style="rounded=0;whiteSpace=wrap;html=1;" vertex="1" parent="1">
          <mxGeometry x="200" y="730" width="120" height="40" as="geometry" />
        </mxCell>
        <mxCell id="odBqUGXwdGTBBKec0tf7-26" style="edgeStyle=orthogonalEdgeStyle;rounded=0;orthogonalLoop=1;jettySize=auto;html=1;exitX=1;exitY=0.5;exitDx=0;exitDy=0;entryX=1;entryY=0.5;entryDx=0;entryDy=0;" edge="1" parent="1" source="odBqUGXwdGTBBKec0tf7-27" target="odBqUGXwdGTBBKec0tf7-33">
          <mxGeometry relative="1" as="geometry">
            <Array as="points">
              <mxPoint x="680" y="750" />
              <mxPoint x="680" y="460" />
            </Array>
          </mxGeometry>
        </mxCell>
        <mxCell id="odBqUGXwdGTBBKec0tf7-27" value="i++" style="rounded=0;whiteSpace=wrap;html=1;" vertex="1" parent="1">
          <mxGeometry x="520" y="730" width="120" height="40" as="geometry" />
        </mxCell>
        <mxCell id="odBqUGXwdGTBBKec0tf7-28" style="edgeStyle=orthogonalEdgeStyle;rounded=0;orthogonalLoop=1;jettySize=auto;html=1;exitX=0.5;exitY=1;exitDx=0;exitDy=0;entryX=0.5;entryY=0;entryDx=0;entryDy=0;" edge="1" parent="1" source="odBqUGXwdGTBBKec0tf7-29" target="odBqUGXwdGTBBKec0tf7-13">
          <mxGeometry relative="1" as="geometry" />
        </mxCell>
        <mxCell id="odBqUGXwdGTBBKec0tf7-29" value="" style="ellipse;whiteSpace=wrap;html=1;aspect=fixed;" vertex="1" parent="1">
          <mxGeometry x="400" y="790" width="50" height="50" as="geometry" />
        </mxCell>
        <mxCell id="odBqUGXwdGTBBKec0tf7-30" style="edgeStyle=orthogonalEdgeStyle;rounded=0;orthogonalLoop=1;jettySize=auto;html=1;exitX=0.5;exitY=1;exitDx=0;exitDy=0;entryX=0.5;entryY=0;entryDx=0;entryDy=0;" edge="1" parent="1" source="odBqUGXwdGTBBKec0tf7-31" target="odBqUGXwdGTBBKec0tf7-16">
          <mxGeometry relative="1" as="geometry" />
        </mxCell>
        <mxCell id="odBqUGXwdGTBBKec0tf7-31" value="" style="ellipse;whiteSpace=wrap;html=1;aspect=fixed;" vertex="1" parent="1">
          <mxGeometry x="240" y="440" width="40" height="40" as="geometry" />
        </mxCell>
        <mxCell id="odBqUGXwdGTBBKec0tf7-32" style="edgeStyle=orthogonalEdgeStyle;rounded=0;orthogonalLoop=1;jettySize=auto;html=1;exitX=0.5;exitY=1;exitDx=0;exitDy=0;entryX=0.5;entryY=0;entryDx=0;entryDy=0;" edge="1" parent="1" source="odBqUGXwdGTBBKec0tf7-33" target="odBqUGXwdGTBBKec0tf7-19">
          <mxGeometry relative="1" as="geometry" />
        </mxCell>
        <mxCell id="odBqUGXwdGTBBKec0tf7-33" value="" style="ellipse;whiteSpace=wrap;html=1;aspect=fixed;" vertex="1" parent="1">
          <mxGeometry x="560" y="440" width="40" height="40" as="geometry" />
        </mxCell>
        <mxCell id="odBqUGXwdGTBBKec0tf7-35" style="edgeStyle=orthogonalEdgeStyle;rounded=0;orthogonalLoop=1;jettySize=auto;html=1;exitX=0.5;exitY=1;exitDx=0;exitDy=0;entryX=0.5;entryY=0;entryDx=0;entryDy=0;" edge="1" parent="1" source="odBqUGXwdGTBBKec0tf7-36" target="odBqUGXwdGTBBKec0tf7-8">
          <mxGeometry relative="1" as="geometry" />
        </mxCell>
        <mxCell id="odBqUGXwdGTBBKec0tf7-37" style="edgeStyle=orthogonalEdgeStyle;rounded=0;orthogonalLoop=1;jettySize=auto;html=1;entryX=1;entryY=1;entryDx=0;entryDy=0;" edge="1" parent="1" source="odBqUGXwdGTBBKec0tf7-36" target="odBqUGXwdGTBBKec0tf7-29">
          <mxGeometry relative="1" as="geometry">
            <Array as="points">
              <mxPoint x="770" y="200" />
              <mxPoint x="770" y="833" />
            </Array>
          </mxGeometry>
        </mxCell>
        <mxCell id="odBqUGXwdGTBBKec0tf7-36" value="ตรวจสอบ N" style="rhombus;whiteSpace=wrap;html=1;" vertex="1" parent="1">
          <mxGeometry x="363" y="170" width="125" height="60" as="geometry" />
        </mxCell>
      </root>
    </mxGraphModel>
  </diagram>
</mxfile>
